# xmcd
#
# Track frame offsets:
#	150
#	12014
#	26256
#	39418
#	50989
#	65139
#	79361
#	93447
#	106795
#	119080
#	132988
#	147350
#	158528
#	171094
#	182751
#	194891
#	208292
#	220627
#
# Disc length: 3142 seconds
#
# Revision: 1
# Processed by: cddbd v1.5.1PL2 Copyright (c) Steve Scherf et al.
# Submitted via: audiograbber 1.83.01
#
DISCID=0b0c4412
DTITLE=Ella Fitzgerald - Dedicated to You
DYEAR=2004
DGENRE=Blues
TTITLE0=Into Each life some rain must fall
TTITLE1=Dont worry about me
TTITLE2=I must have that man
TTITLE3=Always be in love with you
TTITLE4=Keep cool fool
TTITLE5=My heart belongs to daddy
TTITLE6=Holiday on harlem
TTITLE7=Undecided
TTITLE8=Stairway to the stars
TTITLE9=Cryin mood
TTITLE10=Dedicated to you
TTITLE11=Im the lonliest gal in town
TTITLE12=If you ever change your mind
TTITLE13=Everyones wrong but me
TTITLE14=This time its real
TTITLE15=A four leaf clover in your pocket
TTITLE16=Love that boy
TTITLE17=We cant go on this way
EXTD=
EXTT0=
EXTT1=
EXTT2=
EXTT3=
EXTT4=
EXTT5=
EXTT6=
EXTT7=
EXTT8=
EXTT9=
EXTT10=
EXTT11=
EXTT12=
EXTT13=
EXTT14=
EXTT15=
EXTT16=
EXTT17=
PLAYORDER=
